<svg xmlns="http://www.w3.org/2000/svg" xmlns:xlink="http://www.w3.org/1999/xlink" version="1.1" x="0px" y="0px" viewBox="0 0 100 125" style="enable-background:new 0 0 100 100;" xml:space="preserve"><g><path d="M50,43.839c21.447,0,39.737-2.673,46.839-6.428C98.881,38.49,100,39.659,100,40.88v18.24c0,5.466-22.386,9.897-50,9.897   c-27.614,0-50-4.432-50-9.897V40.88c0-1.221,1.12-2.39,3.161-3.469C10.263,41.166,28.553,43.839,50,43.839z M3.161,68.393   C1.12,69.473,0,70.642,0,71.862v18.24C0,95.568,22.386,100,50,100c27.614,0,50-4.432,50-9.897v-18.24   c0-1.221-1.119-2.39-3.161-3.47C89.737,72.147,71.447,74.821,50,74.821C28.553,74.821,10.263,72.147,3.161,68.393z M50,0   C22.386,0,0,4.432,0,9.898v18.239c0,5.467,22.386,9.898,50,9.898c27.614,0,50-4.431,50-9.898V9.898C100,4.432,77.614,0,50,0z"/></g><text x="0" y="115" fill="#000000" font-size="5px" font-weight="bold" font-family="'Helvetica Neue', Helvetica, Arial-Unicode, Arial, Sans-serif">Created by b farias</text><text x="0" y="120" fill="#000000" font-size="5px" font-weight="bold" font-family="'Helvetica Neue', Helvetica, Arial-Unicode, Arial, Sans-serif">from the Noun Project</text></svg>